<?xml version="1.0" encoding="UTF-8" standalone="no"?>
<!-- Created with Inkscape (http://www.inkscape.org/) -->
<svg
   xmlns:dc="http://purl.org/dc/elements/1.1/"
   xmlns:cc="http://creativecommons.org/ns#"
   xmlns:rdf="http://www.w3.org/1999/02/22-rdf-syntax-ns#"
   xmlns:svg="http://www.w3.org/2000/svg"
   xmlns="http://www.w3.org/2000/svg"
   xmlns:sodipodi="http://sodipodi.sourceforge.net/DTD/sodipodi-0.dtd"
   xmlns:inkscape="http://www.inkscape.org/namespaces/inkscape"
   id="svg74113"
   sodipodi:version="0.32"
   inkscape:version="0.46"
   width="60"
   height="60"
   version="1.0"
   sodipodi:docname="publish_icon.svg"
   inkscape:output_extension="org.inkscape.output.svg.inkscape">
  <metadata
     id="metadata74118">
    <rdf:RDF>
      <cc:Work
         rdf:about="">
        <dc:format>image/svg+xml</dc:format>
        <dc:type
           rdf:resource="http://purl.org/dc/dcmitype/StillImage" />
      </cc:Work>
    </rdf:RDF>
  </metadata>
  <defs
     id="defs74116" />
  <sodipodi:namedview
     inkscape:window-height="965"
     inkscape:window-width="1272"
     inkscape:pageshadow="2"
     inkscape:pageopacity="0.0"
     guidetolerance="10.0"
     gridtolerance="10.0"
     objecttolerance="10.0"
     borderopacity="1.0"
     bordercolor="#666666"
     pagecolor="#ffffff"
     id="base"
     showgrid="false"
     inkscape:zoom="0.71299934"
     inkscape:cx="33.820646"
     inkscape:cy="35.371903"
     inkscape:window-x="185"
     inkscape:window-y="25"
     inkscape:current-layer="svg74113" />
  <path
     id="path74148"
     d="M 9.7500002,51.879965 C 7.5000001,50.725096 5.2500001,49.570226 3.0000001,48.415357 C 3.0895705,43.47647 2.7347328,38.498479 3.4195099,33.595731 C 5.655309,33.952831 8.0556892,35.636647 10.31171,36.59769 C 12.875501,37.885775 15.437106,39.178211 18.000001,40.46808 C 18.000001,45.459699 18.000001,50.451319 18.000001,55.442938 C 15.516379,55.16439 13.394279,53.535406 11.12124,52.576934 C 10.663235,52.346437 10.206157,52.114094 9.7500002,51.879965 z M 18.000001,39.065382 C 18.888476,37.76242 20.309559,36.950982 21.500001,35.942938 C 20.422345,37.116713 19.664179,38.842657 18.148722,39.4324 L 18.037837,39.311031 L 18,39.065381 L 18.000001,39.065382 z"
     style="fill:#cc6464;fill-opacity:1" />
  <path
     id="path74146"
     d="M 43.327998,39.762033 C 44.37189,38.770506 43.751775,38.185521 42.640249,37.720596 C 41.050439,37.25887 42.783014,36.397546 43.310458,35.681169 C 46.015243,32.935091 48.720029,30.189013 51.424815,27.442936 C 52.229053,27.555943 53.677473,27.226695 54.107497,27.596615 C 53.034789,30.046465 50.818161,31.798603 49.160931,33.858992 C 47.241738,35.895442 45.421271,38.055322 43.297449,39.879154 L 43.327997,39.762034 L 43.327998,39.762033 z M 40.999999,38.942938 C 42.244004,36.996366 42.244006,40.889502 40.999999,38.942938 z M 30.999999,20.942936 C 32.244006,18.996367 32.244004,22.889506 30.999999,20.942936 z M 29.000001,19.942936 C 30.244008,17.996368 30.244,21.889506 29.000001,19.942936 z M 27.000001,18.942936 C 28.244008,16.996368 28.244,20.889506 27.000001,18.942936 z M 25.000001,17.942936 C 26.244008,15.996368 26.244,19.889506 25.000001,17.942936 z M 23.000001,16.942936 C 24.244008,14.996368 24.244,18.889506 23.000001,16.942936 z M 21.000001,15.942936 C 22.244008,13.996368 22.244,17.889506 21.000001,15.942936 z M 19.000001,14.942936 C 20.244008,12.996368 20.244,16.889506 19.000001,14.942936 z"
     style="fill:#438745;fill-opacity:1" />
  <path
     id="path74144"
     d="M 25.236756,16.123335 C 23.149008,15.049148 21.06126,13.974961 18.973512,12.900775 C 22.482341,9.4683526 25.991171,6.0359306 29.500001,2.6035086 C 34.344539,5.0640098 39.189078,7.5245102 44.033618,9.9850098 C 40.832845,13.13765 37.632074,16.290292 34.431304,19.442936 C 31.116966,19.513347 28.174362,17.417672 25.236756,16.123335 z"
     style="fill:#9a9aff;fill-opacity:1" />
  <path
     id="path74142"
     d="M 17.000001,57.942938 C 18.244005,55.996367 18.244002,59.889501 17.000001,57.942938 z M 19.000001,57.942938 C 20.244005,55.996367 20.244002,59.889501 19.000001,57.942938 z M 15.000001,56.942938 C 16.244005,54.996367 16.244002,58.889501 15.000001,56.942938 z M 23.951085,53.993402 C 25.065558,52.843558 26.180032,51.693715 27.294505,50.543871 C 29.256168,51.558286 31.217832,52.5727 33.179496,53.587114 C 32.01634,54.87239 30.853182,56.157664 29.690024,57.442938 C 26.662572,57.442938 23.635119,57.442938 20.607667,57.442938 C 21.72214,56.293093 22.836612,55.143247 23.951085,53.993402 z M 52.499999,51.442938 C 54.666073,49.375151 56.698241,47.074221 59.218697,45.442936 C 60.598629,45.09193 59.782691,46.936791 59.999999,47.748407 C 59.919166,48.869807 60.164605,50.129349 59.881751,51.165214 C 57.722762,53.257788 55.563775,55.350362 53.404788,57.442938 C 51.124061,57.442938 48.843333,57.442938 46.562606,57.442938 C 48.541737,55.442938 50.520868,53.442938 52.499999,51.442938 z M 13,55.942938 C 14.244004,53.996366 14.244005,57.889501 13,55.942938 z M 11,54.942938 C 12.244004,52.996366 12.244005,56.889501 11,54.942938 z M 15.000001,54.942938 C 16.244005,52.996367 16.244002,56.889501 15.000001,54.942938 z M 36.999999,54.942938 C 38.244004,52.996366 38.244006,56.889502 36.999999,54.942938 z M 9.0000002,53.942938 C 10.244004,51.996366 10.244005,55.889501 9.0000002,53.942938 z M 13,53.942938 C 14.244004,51.996366 14.244005,55.889501 13,53.942938 z M 34.999999,53.942938 C 36.244004,51.996366 36.244006,55.889502 34.999999,53.942938 z M 7.0000001,52.942938 C 8.2440042,50.996367 8.2440042,54.889501 7.0000001,52.942938 z M 11,52.942938 C 12.244004,50.996366 12.244005,54.889501 11,52.942938 z M 5.0000001,51.942938 C 6.2440041,49.996367 6.2440044,53.889501 5.0000001,51.942938 z M 9.0000002,51.942938 C 10.244004,49.996366 10.244005,53.889501 9.0000002,51.942938 z M 3.0000001,50.942938 C 4.2440041,48.996367 4.2440044,52.889501 3.0000001,50.942938 z M 7.0000001,50.942938 C 8.2440042,48.996367 8.2440042,52.889501 7.0000001,50.942938 z M 5.0000001,49.942938 C 6.2440041,47.996367 6.2440044,51.889501 5.0000001,49.942938 z M 3.0000001,48.942938 C 4.2440041,46.996367 4.2440044,50.889501 3.0000001,48.942938 z M 38.999999,37.442938 C 35.64431,35.050694 42.257156,36.189601 40.634149,37.958006 C 40.047729,37.987709 39.491767,37.735301 38.999999,37.442938 z M 21.500001,35.442938 C 23.119778,32.895735 22.961934,36.469332 21.236592,36.364029 C 21.12767,36.036377 21.366618,35.715607 21.500001,35.442938 z M 8.0000001,26.942936 C 9.9330582,25.069189 11.756605,23.033443 13.93168,21.442936 C 11.243055,25.000257 7.8512646,28.072323 4.6302324,31.182945 C 3.6711113,32.238298 2.2721835,32.938276 3.9950883,31.182944 C 5.2840037,29.727046 6.6363286,28.328535 8.0000001,26.942936 z M 55.999999,26.942936 C 57.244006,24.996367 57.244004,28.889506 55.999999,26.942936 z M 53.999999,25.942936 C 55.244006,23.996367 55.244004,27.889506 53.999999,25.942936 z M 51.999999,24.942936 C 53.244006,22.996367 53.244004,26.889506 51.999999,24.942936 z M 49.999999,23.942936 C 51.244006,21.996367 51.244004,25.889506 49.999999,23.942936 z M 47.999999,22.942936 C 49.244006,20.996367 49.244004,24.889506 47.999999,22.942936 z M 45.999999,21.942936 C 47.244006,19.996367 47.244004,23.889506 45.999999,21.942936 z M 18.000001,12.942936 C 19.244008,10.996368 19.244,14.889506 18.000001,12.942936 z"
     style="fill:#a3a3a6" />
  <path
     id="path74140"
     d="M 25.250001,33.66501 C 22.833334,32.445327 20.416667,31.225644 18.000001,30.00596 C 18.000001,24.823743 18.000001,19.641526 18.000001,14.459309 C 23.000001,16.933375 28,19.407441 32.999999,21.881508 C 32.935709,27.047867 33.177862,32.234089 32.75,37.383498 C 30.226954,36.192229 27.745699,34.912537 25.250001,33.66501 z M 32.999999,19.942936 C 34.244006,17.996367 34.244004,21.889506 32.999999,19.942936 z M 23.500001,7.4429365 C 24.972508,6.090711 27.956943,2.6737611 28.730358,2.8374676 C 25.748163,6.2480646 22.622146,9.6238067 19.075184,12.442936 C 20.245082,10.588864 21.99618,9.0667946 23.500001,7.4429365 z M 41.999999,8.9429365 C 43.244005,6.9963665 43.244005,10.889506 41.999999,8.9429365 z M 39.999999,7.9429365 C 41.244005,5.9963665 41.244005,9.8895055 39.999999,7.9429365 z M 37.999999,6.9429365 C 39.244005,4.9963665 39.244005,8.8895055 37.999999,6.9429365 z M 35.999999,5.9429365 C 37.244005,3.9963665 37.244005,7.8895055 35.999999,5.9429365 z M 33.999999,4.9429365 C 35.244005,2.9963665 35.244005,6.8895055 33.999999,4.9429365 z M 31.999999,3.9429363 C 33.244006,1.9963667 33.244005,5.889506 31.999999,3.9429363 z M 30.000001,2.9429363 C 31.244007,0.99636695 31.244002,4.889506 30.000001,2.9429363 z"
     style="fill:#9a9aff;fill-opacity:1" />
  <path
     id="path74138"
     d="M 32.999999,29.374616 C 32.999999,26.541283 32.999999,23.70795 32.999999,20.874616 C 36.666665,17.253496 40.333332,13.632376 43.999999,10.011256 C 43.999999,15.677922 43.999999,21.344589 43.999999,27.011255 C 40.333333,30.632377 36.666667,34.253497 32.999999,37.874616 C 32.999999,35.041283 32.999999,32.20795 32.999999,29.374616 z"
     style="fill:#2e2e5e;fill-opacity:1" />
  <path
     id="path74136"
     d="M 36.249999,52.169336 C 34.166666,51.118158 32.083334,50.06698 30.000001,49.015802 C 30.088611,47.910603 29.821935,46.620429 30.134906,45.632041 C 33.518665,43.263269 36.902424,40.8945 40.286185,38.525732 C 41.532694,39.142404 42.818999,40.101802 44.188492,40.070301 C 44.467321,45.190909 43.989593,50.320658 43.847705,55.442938 C 41.461252,55.101875 39.407039,53.569892 37.206316,52.648621 C 36.887111,52.489724 36.568337,52.32996 36.249999,52.169336 z M 49.545249,33.398977 C 51.206378,31.753331 53.148102,29.013251 54.932894,28.357341 C 51.916548,32.271968 48.072115,35.45164 44.590499,38.942938 C 46.242082,37.094951 47.893666,35.246964 49.545249,33.398977 z"
     style="fill:#00be51;fill-opacity:1" />
  <path
     id="path74134"
     d="M 23.000001,53.942938 C 24.057003,52.997085 26.046102,50.584737 26.818798,50.719107 C 24.848475,53.1902 22.654671,55.56758 20.107666,57.442936 C 20.710397,56.129527 22.038145,55.057983 23.000001,53.942938 z M 44.342811,47.942938 C 44.345012,45.276271 44.347213,42.609604 44.349414,39.942938 C 44.926534,45.10998 45.120467,50.333279 44.383215,55.494916 C 44.282827,56.386337 44.362409,53.864806 44.338382,53.308117 C 44.339858,51.519724 44.341334,49.731331 44.342811,47.942938 z M 31.999999,52.942938 C 33.244004,50.996366 33.244006,54.889502 31.999999,52.942938 z M 30.000001,51.942938 C 31.244005,49.996366 31.244004,53.889501 30.000001,51.942938 z M 28.000001,50.942938 C 29.244005,48.996367 29.244002,52.889501 28.000001,50.942938 z M 30.000001,41.957441 C 30.000001,40.762483 30.000001,39.567526 30.000001,38.372568 C 31.249423,39.041239 32.498845,39.70991 33.748267,40.37858 C 34.894815,39.111658 36.041363,37.844736 37.187911,36.577814 C 38.907167,36.948634 41.251068,38.517933 38.560244,39.73114 C 35.834366,41.848899 32.914084,43.697959 30.000001,45.542314 C 30.000001,44.347357 30.000001,43.152399 30.000001,41.957441 z M 39.975737,36.427938 C 38.902473,35.920075 38.064216,35.383732 39.430241,34.580257 C 41.953495,32.009249 44.476747,29.438241 46.999999,26.867233 C 46.321561,24.16762 49.055777,24.232854 50.640755,25.813849 C 51.1814,26.36553 53.277959,26.754248 51.900055,27.506873 C 48.414707,30.783043 44.929359,34.059213 41.444011,37.335382 C 40.954586,37.032901 40.465162,36.73042 39.975737,36.427938 z M 21.000001,33.942938 C 22.244005,31.996367 22.244002,35.889501 21.000001,33.942938 z M 19.000001,32.942938 C 20.244005,30.996367 20.244002,34.889501 19.000001,32.942938 z M 16.40198,31.048097 C 15.74576,28.045155 16.346979,24.967985 16.549712,21.942936 C 16.797665,25.313311 17.315398,28.677145 17.251794,32.059624 C 17.054572,32.993976 16.495932,31.202184 16.40198,31.048097 z M 14,20.942936 C 15.244006,18.996367 15.244003,22.889506 14,20.942936 z"
     style="fill:#5ca45c;fill-opacity:1" />
  <path
     id="path74132"
     d="M 50.999999,51.942938 C 53.270763,49.736195 55.431354,47.374664 57.942223,45.442936 C 54.862397,49.369288 51.10953,52.796691 47.543946,56.307495 C 46.876787,57.058549 43.875363,59.598694 45.882836,57.328922 C 47.528788,55.478068 49.26087,53.705754 50.999999,51.942938 z M 16.750001,55.780657 C 18.048542,55.658723 18.161974,54.737041 18.000001,53.629506 C 18.000001,49.016858 18.000001,44.404211 18.000001,39.791563 C 19.609949,38.279093 21.219899,36.766624 22.829848,35.254156 C 24.219899,35.695341 25.60995,36.136526 27.000001,36.577711 C 27.000001,40.340884 27.000001,44.104058 27.000001,47.867231 C 24.194529,50.7258 21.389057,53.584369 18.583585,56.442938 C 17.555723,56.390305 16.527862,56.337672 15.500001,56.28504 C 15.916667,56.116912 16.333334,55.948784 16.750001,55.780657 z M 14,54.942938 C 15.244004,52.996367 15.244004,56.889501 14,54.942938 z M 12,53.942938 C 13.244004,51.996366 13.244005,55.889501 12,53.942938 z M 10,52.942938 C 11.244004,50.996366 11.244005,54.889501 10,52.942938 z M 32.999999,52.942938 C 34.244004,50.996366 34.244006,54.889502 32.999999,52.942938 z M 8.0000001,51.942938 C 9.2440042,49.996367 9.2440052,53.889501 8.0000001,51.942938 z M 30.999999,51.942938 C 32.244004,49.996366 32.244006,53.889502 30.999999,51.942938 z M 6.0000001,50.942938 C 7.2440041,48.996367 7.2440044,52.889501 6.0000001,50.942938 z M 29.000001,50.942938 C 30.244005,48.996367 30.244002,52.889501 29.000001,50.942938 z M 4.0000001,49.942938 C 5.2440041,47.996367 5.2440044,51.889501 4.0000001,49.942938 z M 27.000001,49.942938 C 28.244005,47.996367 28.244002,51.889501 27.000001,49.942938 z M 36.999999,35.942938 C 38.244004,33.996366 38.244006,37.889502 36.999999,35.942938 z M 16.000001,21.942936 C 17.244008,19.996368 17.244,23.889506 16.000001,21.942936 z"
     style="fill:#9b0303;fill-opacity:1" />
  <path
     id="path74130"
     d="M 44.999999,46.867754 C 44.999999,44.201087 44.999999,41.53442 44.999999,38.867754 C 48.333333,35.584543 51.666666,32.301332 54.999999,29.01812 C 54.999999,34.351454 54.999999,39.684788 54.999999,45.018122 C 51.666666,48.301332 48.333332,51.584543 44.999999,54.867754 C 44.999999,52.201087 44.999999,49.53442 44.999999,46.867754 z"
     style="fill:#0a6f02;fill-opacity:1" />
  <path
     id="path74128"
     d="M 49.074237,50.790716 C 51.049491,48.906642 53.024745,47.022568 54.999999,45.138494 C 55.137089,39.073308 55.274179,33.008122 55.411269,26.942936 C 55.63521,32.895616 55.85915,38.848297 56.083087,44.800978 C 52.134271,48.681563 48.445661,52.858888 44.115143,56.324129 C 44.26114,55.068275 47.364192,52.623884 48.771414,51.080442 L 49.074237,50.790716 L 49.074237,50.790716 z M 40.999999,54.942938 C 42.244004,52.996366 42.244006,56.889502 40.999999,54.942938 z M 38.999999,53.942938 C 40.244004,51.996366 40.244006,55.889502 38.999999,53.942938 z M 36.999999,52.942938 C 38.244004,50.996366 38.244006,54.889502 36.999999,52.942938 z M 34.999999,51.942938 C 36.244004,49.996366 36.244006,53.889502 34.999999,51.942938 z M 32.999999,50.942938 C 34.244004,48.996366 34.244006,52.889502 32.999999,50.942938 z M 30.999999,49.942938 C 32.244004,47.996366 32.244006,51.889502 30.999999,49.942938 z M 29.309869,43.942938 C 29.313271,41.942938 29.316673,39.942938 29.320075,37.942938 C 29.916321,41.822105 30.153821,45.785094 29.343691,49.652996 C 29.244752,49.940962 29.330002,47.816391 29.304426,47.143443 C 29.30624,46.076608 29.308054,45.009773 29.309869,43.942938 z M 32.999999,39.942938 C 34.244004,37.996366 34.244006,41.889502 32.999999,39.942938 z M 30.999999,38.942938 C 32.244004,36.996366 32.244006,40.889502 30.999999,38.942938 z M 30.999999,36.942938 C 32.244004,34.996366 32.244006,38.889502 30.999999,36.942938 z M 29.000001,35.942938 C 30.244005,33.996367 30.244002,37.889501 29.000001,35.942938 z M 27.000001,34.942938 C 28.244005,32.996367 28.244002,36.889501 27.000001,34.942938 z M 41.749999,31.405084 C 43.166666,29.892467 44.583332,28.37985 45.999999,26.867233 C 45.999999,25.725801 45.999999,24.584368 45.999999,23.442936 C 47.011165,23.425435 48.34955,23.155281 47.521121,24.558168 C 47.114515,25.821258 47.142008,27.342574 45.871738,28.091905 C 43.081158,30.708915 40.290578,33.325926 37.499999,35.942938 C 38.916666,34.43032 40.333332,32.917702 41.749999,31.405084 z M 25.000001,33.942938 C 26.244005,31.996367 26.244002,35.889501 25.000001,33.942938 z M 23.000001,32.942938 C 24.244005,30.996367 24.244002,34.889501 23.000001,32.942938 z M 21.000001,31.942936 C 22.244006,29.996368 22.244001,33.889505 21.000001,31.942936 z M 19.000001,30.942936 C 20.244008,28.996368 20.244,32.889506 19.000001,30.942936 z M 52.999999,26.942936 C 54.244006,24.996367 54.244004,28.889506 52.999999,26.942936 z M 43.992308,17.738281 C 43.828205,14.670063 43.664102,11.601845 43.499999,8.5336262 C 44.147789,9.3432433 45.43433,9.9026397 45.050644,11.116323 C 44.861965,16.39186 44.673289,21.667398 44.484614,26.942936 C 44.320512,23.874718 44.15641,20.806499 43.992308,17.738281 z M 50.999999,25.942936 C 52.244006,23.996367 52.244004,27.889506 50.999999,25.942936 z M 48.999999,24.942936 C 50.244006,22.996367 50.244004,26.889506 48.999999,24.942936 z M 40.999999,7.9429365 C 42.244005,5.9963665 42.244005,9.8895055 40.999999,7.9429365 z M 38.999999,6.9429365 C 40.244005,4.9963665 40.244005,8.8895055 38.999999,6.9429365 z M 36.999999,5.9429365 C 38.244005,3.9963665 38.244005,7.8895055 36.999999,5.9429365 z M 34.999999,4.9429365 C 36.244005,2.9963665 36.244005,6.8895055 34.999999,4.9429365 z M 32.999999,3.9429363 C 34.244006,1.9963667 34.244005,5.889506 32.999999,3.9429363 z M 30.999999,2.9429363 C 32.244006,0.99636666 32.244005,4.889506 30.999999,2.9429363 z"
     style="fill:#0c0a30;fill-opacity:1" />
  <path
     id="path74126"
     d="M 10.25,54.134027 C 7.5000001,52.755505 4.7500001,51.376983 2.0000001,49.998461 C 2.0000001,43.665951 2.0000001,37.333441 2.0000001,31.000931 C 5.8124645,27.148266 9.6249292,23.295601 13.437393,19.442936 C 14.624929,19.442936 15.812465,19.442936 17.000001,19.442936 C 17.000001,16.922067 17.000001,14.401198 17.000001,11.880329 C 21.001868,7.9202188 25.003735,3.9601092 29.005603,3e-08 C 34.670402,2.8094521 40.335201,5.618905 45.999999,8.4283586 C 45.999999,12.977306 45.999999,17.526252 45.999999,22.075199 C 49.999999,23.987023 53.999999,25.898848 57.999999,27.810673 C 57.999999,33.504696 57.999999,39.19872 57.999999,44.892744 C 53.562935,49.364068 49.125873,53.835393 44.688811,58.306719 C 38.902102,55.400459 33.115392,52.494199 27.328683,49.587938 C 24.385788,52.481821 21.442894,55.375705 18.500001,58.26959 C 15.750001,56.891069 13,55.512548 10.25,54.134027 z M 22.791793,52.155084 C 24.194529,50.7258 25.597265,49.296516 27.000001,47.867231 C 26.999321,44.2258 26.998643,40.584369 26.997968,36.942938 C 23.665311,35.071148 20.332656,33.199357 17.000001,31.327564 C 17.000001,28.104014 17.000001,24.880464 17.000001,21.656914 C 16.064751,21.40594 15.028306,20.685069 14.156163,20.727132 C 10.437442,24.485065 6.7187213,28.242998 3.0000001,32.000931 C 3.0000001,37.80574 3.0000001,43.610548 3.0000001,49.415357 C 7.8187347,51.795282 12.47905,54.567916 17.541792,56.393753 C 19.605088,55.512346 21.167939,53.653739 22.791793,52.155084 z M 50.221003,50.724237 C 52.147335,48.818006 54.073667,46.911775 55.999999,45.005544 C 55.999999,39.284185 55.999999,33.562826 55.999999,27.841467 C 52.896608,26.434878 49.937388,24.637341 46.691758,23.599958 C 45.144525,24.073764 46.586644,26.372138 45.574471,27.304206 C 41.774842,31.37784 37.975214,35.451475 34.175586,39.52511 C 32.450391,39.092114 30.725196,38.659118 29.000001,38.226122 C 29.000001,41.819401 29.000001,45.412681 29.000001,49.00596 C 33.982422,51.480228 38.891306,54.115217 43.971003,56.383498 C 46.255645,54.761351 48.185128,52.647558 50.221003,50.724237 z M 39.281302,31.663938 C 41.187535,29.737606 43.093767,27.811273 44.999999,25.884941 C 44.999999,20.412654 44.999999,14.940367 44.999999,9.4680792 C 40.100744,7.0811971 35.346972,4.3403626 30.198567,2.5146284 C 29.018878,2.1254957 28.080095,2.6538321 27.391199,3.6000739 C 24.260799,6.6915873 21.1304,9.7831017 18.000001,12.874616 C 18.000001,18.72153 18.000001,24.568444 18.000001,30.415357 C 22.815669,32.794441 27.473997,35.562714 32.531303,37.393753 C 33.675977,37.808455 34.223217,36.689633 34.952583,36.038303 C 36.39549,34.580181 37.838396,33.12206 39.281302,31.663938 z"
     style="fill:#060505" />
  <path
     style="fill:#ffd9d9;fill-rule:evenodd;stroke:none;stroke-width:1px;stroke-linecap:butt;stroke-linejoin:miter;stroke-opacity:1;fill-opacity:1"
     d="M 3.8569461,32.037141 L 8.7657866,26.952984 L 14.025258,21.518197 L 15.866074,22.482434 L 15.515442,28.618484 L 15.778416,30.634615 L 16.917968,31.861825 L 18.583467,33.264351 L 21.563835,34.754535 L 20.599598,36.420034 L 17.443915,39.663375 L 3.8569461,32.037141 z"
     id="path74821"
     sodipodi:nodetypes="cccccccccccc" />
</svg>
